<svg width="82" height="81" viewBox="0 0 82 81" fill="none" xmlns="http://www.w3.org/2000/svg">
<path d="M27.4488 25.9475V52.0322L23.0921 52.4441L18.6316 52.8559L18.3204 65.6237L18.0092 78.2542H14.4823C11.3704 78.2542 10.8517 77.8424 10.8517 74.9593C10.8517 72.9 11.889 70.8407 13.5487 69.3305C16.0383 67.2712 16.2458 66.4475 15.6234 60.9559C14.7935 52.7186 13.3413 49.4237 10.4368 49.4237C7.11736 49.4237 4.83526 53.2678 4.00541 59.9949C3.38302 65.0746 3.69421 66.1729 6.28751 69.4678C8.05095 71.6644 8.56961 72.9 7.53229 72.3508C6.49497 71.939 5.45765 72.0763 5.14646 72.7627C4.83526 73.4492 5.56139 74.2729 6.70244 74.822C10.0219 76.1949 9.08827 78.2542 5.25019 78.2542C3.27929 78.2542 1.30838 78.9407 0.997187 79.6271C0.58226 80.5881 13.2375 81 38.2369 81C62.8214 81 76.2028 80.4508 76.2028 79.6271C76.2028 78.8034 75.4766 78.2542 74.6468 78.2542C73.402 78.2542 73.0908 74.9593 72.8833 59.4458L72.5721 40.5L64.0661 40.0881L55.4564 39.6763V28.0068V16.3373L50.581 13.4542C47.7802 11.9441 41.6601 8.23729 36.9921 5.35424C32.2205 2.3339 28.0712 -1.57952e-06 27.8637 -1.57952e-06C27.6563 -1.57952e-06 27.4488 11.6695 27.4488 25.9475ZM52.9668 17.8475C53.1743 17.8475 53.3818 31.439 53.3818 48.0508V78.2542H48.1952H43.0086V70.0169V61.7797H37.822H32.6354V70.0169C32.6354 76.4695 32.3242 78.2542 31.0794 78.2542C29.7309 78.2542 29.5234 73.1746 29.5234 41.1864V4.25593L41.0377 10.983C47.3653 14.8271 52.7594 17.8475 52.9668 17.8475ZM71.0162 61.0932V78.2542H63.2363H55.4564V61.0932V43.9322H63.2363H71.0162V61.0932ZM12.5114 58.3475C13.8599 63.839 13.2375 68.6441 11.7853 63.4271C10.6442 59.3085 8.77707 59.5831 8.77707 63.9763C8.77707 66.1729 8.36215 67.1339 7.63602 66.4475C6.49497 65.6237 7.11736 56.1508 8.36215 53.2678C9.5032 50.9339 11.0592 52.9932 12.5114 58.3475ZM27.2413 66.8593L27.5525 78.2542H23.8182H20.1876V67.5458C20.1876 61.6424 20.4988 56.2881 20.9137 55.739C21.3286 55.1898 22.8846 54.9153 24.3368 55.1898C26.8264 55.6017 26.9301 56.0136 27.2413 66.8593ZM39.8966 71.3898C39.8966 77.8424 39.6892 78.2542 37.3033 78.2542C34.9175 78.2542 34.71 77.8424 34.71 71.3898C34.71 64.9373 34.9175 64.5254 37.3033 64.5254C39.6892 64.5254 39.8966 64.9373 39.8966 71.3898Z" fill="#004E8F"/>
<path d="M32.6355 28.1439V32.949H41.4527H50.2699V28.1439V23.3388H41.4527H32.6355V28.1439ZM48.1953 27.4574C48.1953 28.2812 45.2908 28.8303 41.4527 28.8303C37.6146 28.8303 34.7101 28.2812 34.7101 27.4574C34.7101 26.6337 37.6146 26.0846 41.4527 26.0846C45.2908 26.0846 48.1953 26.6337 48.1953 27.4574Z" fill="#004E8F"/>
<path d="M32.6355 40.4998V45.3049H41.4527H50.2699V40.4998V35.6948H41.4527H32.6355V40.4998ZM48.1953 39.8134C48.1953 40.6371 45.2908 41.1863 41.4527 41.1863C37.6146 41.1863 34.7101 40.6371 34.7101 39.8134C34.7101 38.9897 37.6146 38.4405 41.4527 38.4405C45.2908 38.4405 48.1953 38.9897 48.1953 39.8134Z" fill="#004E8F"/>
<path d="M33.3616 47.5016C32.9467 48.0507 32.6355 50.5219 32.6355 53.1304V57.6609H41.5564H50.3736L50.0624 52.4439L49.7512 47.3643L41.9714 46.9524C37.6146 46.8151 33.7765 46.9524 33.3616 47.5016ZM48.1953 52.1694C48.1953 52.9931 45.2908 53.5422 41.4527 53.5422C37.6146 53.5422 34.7101 52.9931 34.7101 52.1694C34.7101 51.3456 37.6146 50.7965 41.4527 50.7965C45.2908 50.7965 48.1953 51.3456 48.1953 52.1694Z" fill="#004E8F"/>
<path d="M57.531 50.1102V54.9153H63.2363H68.9415V50.1102V45.3051H63.2363H57.531V50.1102ZM65.8296 50.7966C65.8296 51.4831 64.481 52.1695 62.7176 52.1695C61.0579 52.1695 59.6056 51.4831 59.6056 50.7966C59.6056 49.9729 61.0579 49.4238 62.7176 49.4238C64.481 49.4238 65.8296 49.9729 65.8296 50.7966Z" fill="#004E8F"/>
<path d="M57.531 62.4662V67.2712H63.2363H68.9415V62.4662V57.6611H63.2363H57.531V62.4662ZM65.8296 63.1526C65.8296 63.839 64.481 64.5255 62.7176 64.5255C61.0579 64.5255 59.6056 63.839 59.6056 63.1526C59.6056 62.3289 61.0579 61.7797 62.7176 61.7797C64.481 61.7797 65.8296 62.3289 65.8296 63.1526Z" fill="#004E8F"/>
<path d="M78.7959 79.6271C78.4847 80.3136 79.1071 81 80.3518 81C81.5966 81 82.219 80.3136 81.9078 79.6271C81.5966 78.8034 80.8705 78.2542 80.3518 78.2542C79.8332 78.2542 79.1071 78.8034 78.7959 79.6271Z" fill="#004E8F"/>
</svg>
